<svg width="51" height="48" viewBox="0 0 51 48" fill="none" xmlns="http://www.w3.org/2000/svg">
<ellipse cx="25.5" cy="24" rx="25.5" ry="24" fill="#458260"/>
<path d="M9 39.6857C14.7751 37.5341 18.0516 37.3441 24 39.6857" stroke="white"/>
<path d="M25 37C22.9136 35.7 19.1273 34.7059 16.5 34.7059C13.95 34.7059 11.3227 35.1647 9.15909 36.3118C9.00455 36.3882 8.92727 36.3882 8.77273 36.3882C8.38636 36.3882 8 36.0059 8 35.6235V13.2941C8.92727 12.6059 9.93182 12.1471 11.0909 11.7647C12.8064 11.2294 14.6918 11 16.5 11C19.5136 11 22.7591 11.6118 25 13.2941C27.2409 11.6118 30.4864 11 33.5 11C35.3082 11 37.1936 11.2294 38.9091 11.7647C40.0682 12.1471 41.0727 12.6059 42 13.2941V35.6235C42 36.0059 41.6136 36.3882 41.2273 36.3882C41.0727 36.3882 40.9955 36.3882 40.8409 36.3118C38.6773 35.1647 36.05 34.7059 33.5 34.7059C30.8727 34.7059 27.0864 35.7 25 37ZM25 16.3529V33.9412C27.0864 32.6412 30.8727 31.6471 33.5 31.6471C35.3545 31.6471 37.2091 31.8765 38.9091 32.4118V14.8235C37.2091 14.2882 35.3545 14.0588 33.5 14.0588C30.8727 14.0588 27.0864 15.0529 25 16.3529ZM26.5455 21.7059C28.2609 20.6659 30.5636 20.1765 33.5 20.1765C34.9064 20.1765 36.22 20.3141 37.3636 20.6047V18.2341C36.0191 18.0047 34.7209 17.8824 33.5 17.8824C30.7645 17.8824 28.4464 18.3106 26.5455 19.1671V21.7059ZM33.5 21.9659C30.8573 21.9659 28.5391 22.3635 26.5455 23.1741V25.7588C28.2609 24.7647 30.5636 24.2447 33.5 24.2447C35.1073 24.2447 36.4055 24.3671 37.3636 24.6118V22.3176C36.0191 22.0729 34.7209 21.9659 33.5 21.9659ZM37.3636 26.4012C36.0191 26.1565 34.7209 26.0341 33.5 26.0341C30.6718 26.0341 28.3536 26.4471 26.5455 27.2576V29.8424C28.2609 28.8329 30.5636 28.3282 33.5 28.3282C35.1073 28.3282 36.4055 28.4506 37.3636 28.6953V26.4012Z" fill="white"/>
<path d="M9 38C14.7751 35.8484 18.0516 35.6584 24 38" stroke="white"/>
<path d="M26 37.6857C31.7751 35.5341 35.0516 35.3441 41 37.6857" stroke="white"/>
<path d="M26 39.6857C31.7751 37.5341 35.0516 37.3441 41 39.6857" stroke="white"/>
</svg>
