<svg width="206" height="74" viewBox="0 0 206 74" fill="none" xmlns="http://www.w3.org/2000/svg">
<rect width="206" height="74" rx="20" fill="white"/>
<ellipse cx="38.5" cy="37" rx="25.5" ry="24" fill="#458260"/>
<path d="M22 52.6857C27.7751 50.5341 31.0516 50.3441 37 52.6857" stroke="white"/>
<path d="M38 50C35.9136 48.7 32.1273 47.7059 29.5 47.7059C26.95 47.7059 24.3227 48.1647 22.1591 49.3118C22.0045 49.3882 21.9273 49.3882 21.7727 49.3882C21.3864 49.3882 21 49.0059 21 48.6235V26.2941C21.9273 25.6059 22.9318 25.1471 24.0909 24.7647C25.8064 24.2294 27.6918 24 29.5 24C32.5136 24 35.7591 24.6118 38 26.2941C40.2409 24.6118 43.4864 24 46.5 24C48.3082 24 50.1936 24.2294 51.9091 24.7647C53.0682 25.1471 54.0727 25.6059 55 26.2941V48.6235C55 49.0059 54.6136 49.3882 54.2273 49.3882C54.0727 49.3882 53.9955 49.3882 53.8409 49.3118C51.6773 48.1647 49.05 47.7059 46.5 47.7059C43.8727 47.7059 40.0864 48.7 38 50ZM38 29.3529V46.9412C40.0864 45.6412 43.8727 44.6471 46.5 44.6471C48.3545 44.6471 50.2091 44.8765 51.9091 45.4118V27.8235C50.2091 27.2882 48.3545 27.0588 46.5 27.0588C43.8727 27.0588 40.0864 28.0529 38 29.3529ZM39.5455 34.7059C41.2609 33.6659 43.5636 33.1765 46.5 33.1765C47.9064 33.1765 49.22 33.3141 50.3636 33.6047V31.2341C49.0191 31.0047 47.7209 30.8824 46.5 30.8824C43.7645 30.8824 41.4464 31.3106 39.5455 32.1671V34.7059ZM46.5 34.9659C43.8573 34.9659 41.5391 35.3635 39.5455 36.1741V38.7588C41.2609 37.7647 43.5636 37.2447 46.5 37.2447C48.1073 37.2447 49.4055 37.3671 50.3636 37.6118V35.3176C49.0191 35.0729 47.7209 34.9659 46.5 34.9659ZM50.3636 39.4012C49.0191 39.1565 47.7209 39.0341 46.5 39.0341C43.6718 39.0341 41.3536 39.4471 39.5455 40.2576V42.8424C41.2609 41.8329 43.5636 41.3282 46.5 41.3282C48.1073 41.3282 49.4055 41.4506 50.3636 41.6953V39.4012Z" fill="white"/>
<path d="M22 50.9999C27.7751 48.8483 31.0516 48.6583 37 50.9999" stroke="white"/>
<path d="M39 50.6857C44.7751 48.5341 48.0516 48.3441 54 50.6857" stroke="white"/>
<path d="M39 52.6857C44.7751 50.5341 48.0516 50.3441 54 52.6857" stroke="white"/>
<path d="M79.04 31.46C79.04 31.0467 78.8733 30.66 78.54 30.3C78.2067 29.94 77.7867 29.6133 77.28 29.32C76.7867 29.0133 76.1133 28.64 75.26 28.2C74.2467 27.6667 73.4333 27.2133 72.82 26.84C72.2067 26.4533 71.68 26 71.24 25.48C70.8133 24.96 70.6 24.3867 70.6 23.76C70.6 23.0933 70.88 22.38 71.44 21.62C72 20.8467 72.68 20.2 73.48 19.68C74.2933 19.1467 75.04 18.88 75.72 18.88C76.5467 18.88 77.5067 18.98 78.6 19.18C79.6933 19.38 80.4933 19.5933 81 19.82V23.7H80.24C79.5867 22.62 78.8667 21.78 78.08 21.18C77.3067 20.58 76.4933 20.28 75.64 20.28C74.88 20.28 74.2733 20.52 73.82 21C73.38 21.4667 73.16 22.08 73.16 22.84C73.16 23.28 73.3267 23.6933 73.66 24.08C74.0067 24.4533 74.4267 24.7867 74.92 25.08C75.4267 25.3733 76.1267 25.7533 77.02 26.22C78.0067 26.7133 78.8067 27.1533 79.42 27.54C80.0333 27.9133 80.5467 28.3533 80.96 28.86C81.3867 29.3533 81.6 29.9133 81.6 30.54C81.6 31.2067 81.3 31.9267 80.7 32.7C80.1 33.46 79.3667 34.1067 78.5 34.64C77.6467 35.16 76.8667 35.42 76.16 35.42C75.2933 35.42 74.26 35.32 73.06 35.12C71.8733 34.92 71.02 34.7067 70.5 34.48V30.6H71.26C71.94 31.68 72.7133 32.52 73.58 33.12C74.4467 33.72 75.34 34.02 76.26 34.02C76.8067 34.02 77.2933 33.9 77.72 33.66C78.1467 33.42 78.4733 33.1067 78.7 32.72C78.9267 32.32 79.04 31.9 79.04 31.46ZM89.6839 35H84.1039V34.38L85.8839 32.98V27.14L84.1039 25.9V25.28L87.5239 24H88.2839V33.5L90.0839 34.2L89.6839 35ZM87.0039 18C87.4039 18 87.7306 18.1467 87.9839 18.44C88.2506 18.7333 88.3839 19.1 88.3839 19.54C88.3839 19.8467 88.2906 20.14 88.1039 20.42C87.9172 20.6867 87.6839 20.9 87.4039 21.06C87.1239 21.22 86.8506 21.3 86.5839 21.3C86.1839 21.3 85.8506 21.1533 85.5839 20.86C85.3306 20.5667 85.2039 20.2 85.2039 19.76C85.2039 19.4533 85.2972 19.1667 85.4839 18.9C85.6706 18.62 85.9039 18.4 86.1839 18.24C86.4639 18.08 86.7372 18 87.0039 18ZM104.257 35.02H100.457V28.28C100.457 27.5467 100.344 27.0333 100.117 26.74C99.8907 26.4467 99.484 26.3 98.8973 26.3C98.4573 26.3 98.0173 26.38 97.5773 26.54C97.1507 26.7 96.644 27.0067 96.0573 27.46V33.52L97.8573 34.22L97.4573 35.02H91.8773V34.4L93.6573 33V27.34L91.8773 26.3V25.68L95.2973 24L95.9573 26.6L98.7973 24.34C99.0773 24.2333 99.444 24.18 99.8973 24.18C100.804 24.18 101.524 24.46 102.057 25.02C102.591 25.5667 102.857 26.3133 102.857 27.26V33.5L104.657 34.22L104.257 35.02ZM118.332 35H114.532V33.56L112.672 35.04C112.246 35.1467 111.732 35.2 111.132 35.2C110.252 35.2 109.459 34.9733 108.752 34.52C108.059 34.0533 107.512 33.4267 107.112 32.64C106.726 31.8533 106.532 30.9867 106.532 30.04C106.532 29.0133 106.846 28.0533 107.472 27.16C108.099 26.2533 108.879 25.5333 109.812 25C110.759 24.4533 111.672 24.18 112.552 24.18C113.286 24.18 113.952 24.3867 114.552 24.8V20.68L112.772 19.44V18.82L116.192 17.54H116.952V33.5L118.732 34.2L118.332 35ZM112.152 33.5C112.552 33.5 112.932 33.4467 113.292 33.34C113.666 33.22 114.079 33 114.532 32.68V28.12C114.452 27.4533 114.139 26.9133 113.592 26.5C113.059 26.0733 112.326 25.86 111.392 25.86C109.886 25.86 109.132 26.9333 109.132 29.08C109.132 30.3333 109.392 31.3867 109.912 32.24C110.432 33.08 111.179 33.5 112.152 33.5ZM132.334 35H128.534V28.26C128.534 27.5267 128.421 27.0133 128.194 26.72C127.967 26.4267 127.561 26.28 126.974 26.28C126.534 26.28 126.094 26.36 125.654 26.52C125.227 26.68 124.721 26.9867 124.134 27.44V33.5L125.934 34.2L125.534 35H119.954V34.38L121.734 32.98V20.68L119.954 19.44V18.82L123.374 17.54H124.134V26.5L126.874 24.34C127.154 24.2333 127.521 24.18 127.974 24.18C128.881 24.18 129.601 24.46 130.134 25.02C130.667 25.5667 130.934 26.3133 130.934 27.26V33.5L132.734 34.2L132.334 35ZM139.918 35H134.338V34.38L136.118 32.98V27.14L134.338 25.9V25.28L137.758 24H138.518V33.5L140.318 34.2L139.918 35ZM137.238 18C137.638 18 137.965 18.1467 138.218 18.44C138.485 18.7333 138.618 19.1 138.618 19.54C138.618 19.8467 138.525 20.14 138.338 20.42C138.152 20.6867 137.918 20.9 137.638 21.06C137.358 21.22 137.085 21.3 136.818 21.3C136.418 21.3 136.085 21.1533 135.818 20.86C135.565 20.5667 135.438 20.2 135.438 19.76C135.438 19.4533 135.532 19.1667 135.718 18.9C135.905 18.62 136.138 18.4 136.418 18.24C136.698 18.08 136.972 18 137.238 18ZM144.612 31.9C145.012 31.9 145.338 32.0467 145.592 32.34C145.858 32.6333 145.992 33 145.992 33.44C145.992 33.7467 145.898 34.04 145.712 34.32C145.525 34.5867 145.292 34.8 145.012 34.96C144.732 35.12 144.458 35.2 144.192 35.2C143.792 35.2 143.458 35.0533 143.192 34.76C142.938 34.4667 142.812 34.1 142.812 33.66C142.812 33.3533 142.905 33.0667 143.092 32.8C143.278 32.52 143.512 32.3 143.792 32.14C144.072 31.98 144.345 31.9 144.612 31.9ZM151.389 31.9C151.789 31.9 152.116 32.0467 152.369 32.34C152.636 32.6333 152.769 33 152.769 33.44C152.769 33.7467 152.676 34.04 152.489 34.32C152.302 34.5867 152.069 34.8 151.789 34.96C151.509 35.12 151.236 35.2 150.969 35.2C150.569 35.2 150.236 35.0533 149.969 34.76C149.716 34.4667 149.589 34.1 149.589 33.66C149.589 33.3533 149.682 33.0667 149.869 32.8C150.056 32.52 150.289 32.3 150.569 32.14C150.849 31.98 151.122 31.9 151.389 31.9ZM158.166 31.9C158.566 31.9 158.893 32.0467 159.146 32.34C159.413 32.6333 159.546 33 159.546 33.44C159.546 33.7467 159.453 34.04 159.266 34.32C159.08 34.5867 158.846 34.8 158.566 34.96C158.286 35.12 158.013 35.2 157.746 35.2C157.346 35.2 157.013 35.0533 156.746 34.76C156.493 34.4667 156.366 34.1 156.366 33.66C156.366 33.3533 156.46 33.0667 156.646 32.8C156.833 32.52 157.066 32.3 157.346 32.14C157.626 31.98 157.9 31.9 158.166 31.9Z" fill="#E76035"/>
<path d="M71.488 55.04L71.608 51.92C70.552 51.872 69.728 51.624 69.136 51.176C68.56 50.712 68.272 50.176 68.272 49.568C68.272 48.96 68.56 48.432 69.136 47.984C69.728 47.536 70.552 47.232 71.608 47.072C71.464 44.624 71.392 43.232 71.392 42.896C71.392 41.392 72.848 40.64 75.76 40.64C77.808 40.64 79.392 41.064 80.512 41.912C81.648 42.744 82.216 43.784 82.216 45.032C82.216 46.28 81.592 47.44 80.344 48.512C82.472 49.68 83.536 51.232 83.536 53.168C83.536 54.432 83.144 55.552 82.36 56.528C81.576 57.488 80.56 58.2 79.312 58.664C78.064 59.128 76.808 59.36 75.544 59.36C74.136 59.36 72.848 59.192 71.68 58.856C70.512 58.504 69.616 58.096 68.992 57.632C68.368 57.168 68.056 56.784 68.056 56.48C68.056 56.16 68.136 55.92 68.296 55.76C68.456 55.584 68.648 55.496 68.872 55.496C68.872 55.496 68.904 55.496 68.968 55.496C69.048 55.496 69.264 55.608 69.616 55.832C69.984 56.04 70.392 56.288 70.84 56.576C71.304 56.864 71.904 57.12 72.64 57.344C73.392 57.568 74.136 57.68 74.872 57.68C74.92 57.68 74.968 57.68 75.016 57.68C76.92 57.68 78.496 57.264 79.744 56.432C80.992 55.6 81.616 54.528 81.616 53.216C81.616 52.464 81.392 51.768 80.944 51.128C80.496 50.488 79.888 49.976 79.12 49.592C77.472 50.808 75.544 51.56 73.336 51.848L73.432 54.92C73.432 54.984 73.432 55.04 73.432 55.088C73.432 55.504 73.288 55.8 73 55.976C72.824 56.088 72.648 56.144 72.472 56.144L71.944 55.976C71.64 55.784 71.488 55.472 71.488 55.04ZM73.288 42.872C73.288 43.432 73.304 44.784 73.336 46.928C75.272 46.928 77.104 47.232 78.832 47.84C79.904 47.024 80.44 46.128 80.44 45.152C80.44 44.176 80.04 43.464 79.24 43.016C78.44 42.552 77.44 42.32 76.24 42.32C75.056 42.32 74.072 42.504 73.288 42.872ZM73.288 48.56V50.216C73.992 50.184 74.768 50.048 75.616 49.808C76.48 49.552 77.152 49.264 77.632 48.944C76.752 48.656 75.528 48.512 73.96 48.512C73.672 48.512 73.448 48.528 73.288 48.56ZM71.632 50.312V48.68C70.496 48.808 69.928 49.072 69.928 49.472C69.928 50 70.496 50.28 71.632 50.312ZM87.6205 53.024C87.6205 54.352 87.9885 55.48 88.7245 56.408C89.4605 57.336 90.3805 57.8 91.4845 57.8C92.6045 57.8 93.5485 57.336 94.3165 56.408C95.1005 55.464 95.4925 54.328 95.4925 53C95.4925 51.672 95.1165 50.544 94.3645 49.616C93.6285 48.672 92.7085 48.2 91.6045 48.2C90.5165 48.2 89.5725 48.672 88.7725 49.616C88.0045 50.56 87.6205 51.696 87.6205 53.024ZM87.5005 57.536C86.4445 56.304 85.9165 54.8 85.9165 53.024C85.9165 51.248 86.4525 49.744 87.5245 48.512C88.5965 47.264 89.9485 46.64 91.5805 46.64C93.2125 46.64 94.5565 47.256 95.6125 48.488C96.6685 49.704 97.1965 51.208 97.1965 53C97.1965 54.776 96.6525 56.28 95.5645 57.512C94.4925 58.744 93.1405 59.36 91.5085 59.36C89.8925 59.36 88.5565 58.752 87.5005 57.536ZM101.097 53.024C101.097 54.352 101.465 55.48 102.201 56.408C102.937 57.336 103.857 57.8 104.961 57.8C106.081 57.8 107.025 57.336 107.793 56.408C108.577 55.464 108.969 54.328 108.969 53C108.969 51.672 108.593 50.544 107.841 49.616C107.105 48.672 106.185 48.2 105.081 48.2C103.993 48.2 103.049 48.672 102.249 49.616C101.481 50.56 101.097 51.696 101.097 53.024ZM100.977 57.536C99.9211 56.304 99.3931 54.8 99.3931 53.024C99.3931 51.248 99.9291 49.744 101.001 48.512C102.073 47.264 103.425 46.64 105.057 46.64C106.689 46.64 108.033 47.256 109.089 48.488C110.145 49.704 110.673 51.208 110.673 53C110.673 54.776 110.129 56.28 109.041 57.512C107.969 58.744 106.617 59.36 104.985 59.36C103.369 59.36 102.033 58.752 100.977 57.536ZM115.294 52.808L115.366 58.016C115.366 58.832 115.062 59.24 114.454 59.24C113.718 59.24 113.35 58.696 113.35 57.608C113.35 56.504 113.51 54.904 113.83 52.808C113.83 51.72 113.758 49.672 113.614 46.664C113.47 43.64 113.398 42.008 113.398 41.768C113.398 41.528 113.478 41.296 113.638 41.072C113.814 40.848 113.99 40.736 114.166 40.736C114.358 40.736 114.534 40.776 114.694 40.856C115.078 41.032 115.27 41.344 115.27 41.792C115.27 41.856 115.27 41.912 115.27 41.96V49.808C116.438 47.776 117.878 46.76 119.59 46.76C120.502 46.76 121.238 47.032 121.798 47.576C122.374 48.104 122.662 48.768 122.662 49.568C122.662 50.88 121.982 52 120.622 52.928L119.446 53.696L121.222 56.432C121.43 56.768 121.662 57.024 121.918 57.2C122.19 57.376 122.414 57.48 122.59 57.512C122.782 57.528 122.934 57.552 123.046 57.584C123.158 57.616 123.206 57.68 123.19 57.776C123.19 58.16 123.07 58.504 122.83 58.808C122.59 59.096 122.302 59.24 121.966 59.24C121.902 59.24 121.774 59.24 121.582 59.24C121.182 59.24 120.686 58.752 120.094 57.776C120.078 57.728 120.054 57.688 120.022 57.656C120.006 57.624 119.718 57.16 119.158 56.264C118.598 55.352 118.158 54.672 117.838 54.224C117.422 54.224 117.078 54.112 116.806 53.888C116.534 53.664 116.398 53.344 116.398 52.928C116.398 52.512 116.63 52.208 117.094 52.016C117.222 51.968 117.35 51.944 117.478 51.944C117.846 51.944 118.238 52.144 118.654 52.544C119.262 52.272 119.798 51.856 120.262 51.296C120.742 50.736 120.982 50.232 120.982 49.784C120.982 48.824 120.486 48.344 119.494 48.344C118.598 48.344 117.75 48.792 116.95 49.688C116.15 50.584 115.598 51.624 115.294 52.808ZM133.984 55.544C133.984 56.616 133.536 57.504 132.64 58.208C131.76 58.896 130.704 59.24 129.472 59.24C128.24 59.24 127.16 58.96 126.232 58.4C125.32 57.824 124.864 57.256 124.864 56.696C124.864 56.328 125.016 56.08 125.32 55.952C125.624 55.824 125.856 55.84 126.016 56C126.048 56.016 126.368 56.328 126.976 56.936C127.152 57.096 127.48 57.264 127.96 57.44C128.44 57.6 128.864 57.68 129.232 57.68C130.128 57.68 130.856 57.496 131.416 57.128C131.976 56.76 132.256 56.24 132.256 55.568C132.256 54.72 131.456 54.024 129.856 53.48C128.08 52.872 126.944 52.352 126.448 51.92C126.208 51.712 125.984 51.44 125.776 51.104C125.584 50.752 125.488 50.384 125.488 50C125.488 49.136 125.88 48.384 126.664 47.744C127.464 47.088 128.416 46.76 129.52 46.76C130.624 46.76 131.52 46.952 132.208 47.336C132.896 47.704 133.24 48.12 133.24 48.584C133.24 49.112 132.96 49.376 132.4 49.376C132.176 49.376 131.936 49.288 131.68 49.112C130.912 48.584 130.168 48.32 129.448 48.32C128.744 48.32 128.208 48.48 127.84 48.8C127.408 49.104 127.192 49.464 127.192 49.88C127.192 50.28 127.4 50.608 127.816 50.864C128.232 51.12 128.912 51.44 129.856 51.824C130.8 52.192 131.376 52.424 131.584 52.52C132.288 52.824 132.864 53.24 133.312 53.768C133.76 54.296 133.984 54.888 133.984 55.544ZM143.449 41.6C144.105 41.6 144.433 41.984 144.433 42.752C144.433 43.104 144.313 43.44 144.073 43.76C143.849 44.064 143.577 44.216 143.257 44.216C142.585 44.216 142.249 43.808 142.249 42.992C142.249 42.608 142.361 42.28 142.585 42.008C142.825 41.736 143.113 41.6 143.449 41.6ZM144.241 47.96L144.121 53L144.241 58.04C144.241 58.84 143.937 59.24 143.329 59.24C142.721 59.24 142.417 58.84 142.417 58.04L142.537 53L142.417 47.96C142.417 47.16 142.721 46.76 143.329 46.76C143.937 46.76 144.241 47.16 144.241 47.96ZM157.912 51.44L157.792 55.208V56.24C157.824 56.896 157.984 57.288 158.272 57.416C158.384 57.448 158.512 57.48 158.656 57.512C158.8 57.528 158.896 57.552 158.944 57.584C159.008 57.616 159.04 57.68 159.04 57.776C159.04 58.192 158.904 58.544 158.632 58.832C158.376 59.104 158.072 59.24 157.72 59.24C157.128 59.24 156.712 59.008 156.472 58.544C156.232 58.08 156.112 57.368 156.112 56.408L156.208 51.992C156.208 50.888 155.968 50.008 155.488 49.352C155.024 48.68 154.384 48.344 153.568 48.344C152.752 48.344 151.96 48.8 151.192 49.712C150.44 50.608 149.904 51.64 149.584 52.808L149.656 58.016C149.656 58.832 149.352 59.24 148.744 59.24C148.008 59.24 147.64 58.696 147.64 57.608C147.64 56.504 147.8 54.904 148.12 52.808C148.12 52.136 148.048 51.192 147.904 49.976C147.776 48.76 147.712 48.024 147.712 47.768C147.712 47.512 147.8 47.28 147.976 47.072C148.152 46.864 148.376 46.76 148.648 46.76C148.92 46.76 149.144 46.864 149.32 47.072C149.496 47.28 149.584 47.504 149.584 47.744C149.584 47.984 149.576 48.344 149.56 48.824C149.56 49.304 149.56 49.632 149.56 49.808C150.728 47.776 152.168 46.76 153.88 46.76C155.16 46.76 156.152 47.224 156.856 48.152C157.56 49.064 157.912 50.16 157.912 51.44ZM161.181 46.952L162.381 47V44.96C162.381 43.552 162.653 42.504 163.197 41.816C163.757 41.112 164.429 40.76 165.213 40.76C165.997 40.76 166.645 40.904 167.157 41.192C167.685 41.48 167.949 41.8 167.949 42.152C167.949 42.68 167.725 42.944 167.277 42.944C167.165 42.944 166.893 42.848 166.461 42.656C166.045 42.464 165.717 42.368 165.477 42.368C164.485 42.368 163.989 43.304 163.989 45.176V47L166.317 46.952C166.573 46.952 166.789 47.024 166.965 47.168C167.141 47.296 167.229 47.48 167.229 47.72C167.229 48.2 166.925 48.44 166.317 48.44L163.989 48.392L164.061 57.008C164.061 58.592 163.765 59.808 163.173 60.656C162.597 61.52 161.997 61.952 161.373 61.952C160.765 61.952 160.461 61.8 160.461 61.496C160.461 61.368 160.517 61.24 160.629 61.112C160.757 61 160.925 60.848 161.133 60.656C161.341 60.464 161.517 60.264 161.661 60.056C162.125 59.4 162.381 58.464 162.429 57.248C162.477 56.032 162.501 54.608 162.501 52.976C162.501 51.344 162.469 49.816 162.405 48.392L161.181 48.44C160.573 48.44 160.269 48.2 160.269 47.72C160.269 47.48 160.357 47.296 160.533 47.168C160.709 47.024 160.925 46.952 161.181 46.952ZM170.167 53.024C170.167 54.352 170.535 55.48 171.271 56.408C172.007 57.336 172.927 57.8 174.031 57.8C175.151 57.8 176.095 57.336 176.863 56.408C177.647 55.464 178.039 54.328 178.039 53C178.039 51.672 177.663 50.544 176.911 49.616C176.175 48.672 175.255 48.2 174.151 48.2C173.063 48.2 172.119 48.672 171.319 49.616C170.551 50.56 170.167 51.696 170.167 53.024ZM170.047 57.536C168.991 56.304 168.463 54.8 168.463 53.024C168.463 51.248 168.999 49.744 170.071 48.512C171.143 47.264 172.495 46.64 174.127 46.64C175.759 46.64 177.103 47.256 178.159 48.488C179.215 49.704 179.743 51.208 179.743 53C179.743 54.776 179.199 56.28 178.111 57.512C177.039 58.744 175.687 59.36 174.055 59.36C172.439 59.36 171.103 58.752 170.047 57.536Z" fill="#458260"/>
<circle cx="42" cy="57" r="1" fill="white"/>
<circle cx="34" cy="57" r="1" fill="white"/>
<circle cx="38" cy="58" r="1" fill="white"/>
</svg>
