<svg width="188" height="49" viewBox="0 0 188 49" fill="none" xmlns="http://www.w3.org/2000/svg">
<ellipse cx="25.5" cy="24" rx="25.5" ry="24" fill="#458260"/>
<path d="M9 39.6857C14.7751 37.5341 18.0516 37.3441 24 39.6857" stroke="white"/>
<path d="M25 37C22.9136 35.7 19.1273 34.7059 16.5 34.7059C13.95 34.7059 11.3227 35.1647 9.15909 36.3118C9.00455 36.3882 8.92727 36.3882 8.77273 36.3882C8.38636 36.3882 8 36.0059 8 35.6235V13.2941C8.92727 12.6059 9.93182 12.1471 11.0909 11.7647C12.8064 11.2294 14.6918 11 16.5 11C19.5136 11 22.7591 11.6118 25 13.2941C27.2409 11.6118 30.4864 11 33.5 11C35.3082 11 37.1936 11.2294 38.9091 11.7647C40.0682 12.1471 41.0727 12.6059 42 13.2941V35.6235C42 36.0059 41.6136 36.3882 41.2273 36.3882C41.0727 36.3882 40.9955 36.3882 40.8409 36.3118C38.6773 35.1647 36.05 34.7059 33.5 34.7059C30.8727 34.7059 27.0864 35.7 25 37ZM25 16.3529V33.9412C27.0864 32.6412 30.8727 31.6471 33.5 31.6471C35.3545 31.6471 37.2091 31.8765 38.9091 32.4118V14.8235C37.2091 14.2882 35.3545 14.0588 33.5 14.0588C30.8727 14.0588 27.0864 15.0529 25 16.3529ZM26.5455 21.7059C28.2609 20.6659 30.5636 20.1765 33.5 20.1765C34.9064 20.1765 36.22 20.3141 37.3636 20.6047V18.2341C36.0191 18.0047 34.7209 17.8824 33.5 17.8824C30.7645 17.8824 28.4464 18.3106 26.5455 19.1671V21.7059ZM33.5 21.9659C30.8573 21.9659 28.5391 22.3635 26.5455 23.1741V25.7588C28.2609 24.7647 30.5636 24.2447 33.5 24.2447C35.1073 24.2447 36.4055 24.3671 37.3636 24.6118V22.3176C36.0191 22.0729 34.7209 21.9659 33.5 21.9659ZM37.3636 26.4012C36.0191 26.1565 34.7209 26.0341 33.5 26.0341C30.6718 26.0341 28.3536 26.4471 26.5455 27.2576V29.8424C28.2609 28.8329 30.5636 28.3282 33.5 28.3282C35.1073 28.3282 36.4055 28.4506 37.3636 28.6953V26.4012Z" fill="white"/>
<path d="M9 38C14.7751 35.8484 18.0516 35.6584 24 38" stroke="white"/>
<path d="M26 37.6857C31.7751 35.5341 35.0516 35.3441 41 37.6857" stroke="white"/>
<path d="M26 39.6857C31.7751 37.5341 35.0516 37.3441 41 39.6857" stroke="white"/>
<path d="M66.04 18.46C66.04 18.0467 65.8733 17.66 65.54 17.3C65.2067 16.94 64.7867 16.6133 64.28 16.32C63.7867 16.0133 63.1133 15.64 62.26 15.2C61.2467 14.6667 60.4333 14.2133 59.82 13.84C59.2067 13.4533 58.68 13 58.24 12.48C57.8133 11.96 57.6 11.3867 57.6 10.76C57.6 10.0933 57.88 9.38 58.44 8.62C59 7.84667 59.68 7.2 60.48 6.68C61.2933 6.14667 62.04 5.88 62.72 5.88C63.5467 5.88 64.5067 5.98 65.6 6.18C66.6933 6.38 67.4933 6.59333 68 6.82V10.7H67.24C66.5867 9.62 65.8667 8.78 65.08 8.18C64.3067 7.58 63.4933 7.28 62.64 7.28C61.88 7.28 61.2733 7.52 60.82 8C60.38 8.46667 60.16 9.08 60.16 9.84C60.16 10.28 60.3267 10.6933 60.66 11.08C61.0067 11.4533 61.4267 11.7867 61.92 12.08C62.4267 12.3733 63.1267 12.7533 64.02 13.22C65.0067 13.7133 65.8067 14.1533 66.42 14.54C67.0333 14.9133 67.5467 15.3533 67.96 15.86C68.3867 16.3533 68.6 16.9133 68.6 17.54C68.6 18.2067 68.3 18.9267 67.7 19.7C67.1 20.46 66.3667 21.1067 65.5 21.64C64.6467 22.16 63.8667 22.42 63.16 22.42C62.2933 22.42 61.26 22.32 60.06 22.12C58.8733 21.92 58.02 21.7067 57.5 21.48V17.6H58.26C58.94 18.68 59.7133 19.52 60.58 20.12C61.4467 20.72 62.34 21.02 63.26 21.02C63.8067 21.02 64.2933 20.9 64.72 20.66C65.1467 20.42 65.4733 20.1067 65.7 19.72C65.9267 19.32 66.04 18.9 66.04 18.46ZM76.6839 22H71.1039V21.38L72.8839 19.98V14.14L71.1039 12.9V12.28L74.5239 11H75.2839V20.5L77.0839 21.2L76.6839 22ZM74.0039 5C74.4039 5 74.7306 5.14667 74.9839 5.44C75.2506 5.73333 75.3839 6.1 75.3839 6.54C75.3839 6.84667 75.2906 7.14 75.1039 7.42C74.9172 7.68667 74.6839 7.9 74.4039 8.06C74.1239 8.22 73.8506 8.3 73.5839 8.3C73.1839 8.3 72.8506 8.15333 72.5839 7.86C72.3306 7.56667 72.2039 7.2 72.2039 6.76C72.2039 6.45333 72.2972 6.16667 72.4839 5.9C72.6706 5.62 72.9039 5.4 73.1839 5.24C73.4639 5.08 73.7372 5 74.0039 5ZM91.2573 22.02H87.4573V15.28C87.4573 14.5467 87.344 14.0333 87.1173 13.74C86.8907 13.4467 86.484 13.3 85.8973 13.3C85.4573 13.3 85.0173 13.38 84.5773 13.54C84.1507 13.7 83.644 14.0067 83.0573 14.46V20.52L84.8573 21.22L84.4573 22.02H78.8773V21.4L80.6573 20V14.34L78.8773 13.3V12.68L82.2973 11L82.9573 13.6L85.7973 11.34C86.0773 11.2333 86.444 11.18 86.8973 11.18C87.804 11.18 88.524 11.46 89.0573 12.02C89.5907 12.5667 89.8573 13.3133 89.8573 14.26V20.5L91.6573 21.22L91.2573 22.02ZM105.332 22H101.532V20.56L99.6723 22.04C99.2457 22.1467 98.7323 22.2 98.1323 22.2C97.2523 22.2 96.459 21.9733 95.7523 21.52C95.059 21.0533 94.5123 20.4267 94.1123 19.64C93.7257 18.8533 93.5323 17.9867 93.5323 17.04C93.5323 16.0133 93.8457 15.0533 94.4723 14.16C95.099 13.2533 95.879 12.5333 96.8123 12C97.759 11.4533 98.6723 11.18 99.5523 11.18C100.286 11.18 100.952 11.3867 101.552 11.8V7.68L99.7723 6.44V5.82L103.192 4.54H103.952V20.5L105.732 21.2L105.332 22ZM99.1523 20.5C99.5523 20.5 99.9323 20.4467 100.292 20.34C100.666 20.22 101.079 20 101.532 19.68V15.12C101.452 14.4533 101.139 13.9133 100.592 13.5C100.059 13.0733 99.3257 12.86 98.3923 12.86C96.8857 12.86 96.1323 13.9333 96.1323 16.08C96.1323 17.3333 96.3923 18.3867 96.9123 19.24C97.4323 20.08 98.179 20.5 99.1523 20.5ZM119.334 22H115.534V15.26C115.534 14.5267 115.421 14.0133 115.194 13.72C114.967 13.4267 114.561 13.28 113.974 13.28C113.534 13.28 113.094 13.36 112.654 13.52C112.227 13.68 111.721 13.9867 111.134 14.44V20.5L112.934 21.2L112.534 22H106.954V21.38L108.734 19.98V7.68L106.954 6.44V5.82L110.374 4.54H111.134V13.5L113.874 11.34C114.154 11.2333 114.521 11.18 114.974 11.18C115.881 11.18 116.601 11.46 117.134 12.02C117.667 12.5667 117.934 13.3133 117.934 14.26V20.5L119.734 21.2L119.334 22ZM126.918 22H121.338V21.38L123.118 19.98V14.14L121.338 12.9V12.28L124.758 11H125.518V20.5L127.318 21.2L126.918 22ZM124.238 5C124.638 5 124.965 5.14667 125.218 5.44C125.485 5.73333 125.618 6.1 125.618 6.54C125.618 6.84667 125.525 7.14 125.338 7.42C125.152 7.68667 124.918 7.9 124.638 8.06C124.358 8.22 124.085 8.3 123.818 8.3C123.418 8.3 123.085 8.15333 122.818 7.86C122.565 7.56667 122.438 7.2 122.438 6.76C122.438 6.45333 122.532 6.16667 122.718 5.9C122.905 5.62 123.138 5.4 123.418 5.24C123.698 5.08 123.972 5 124.238 5ZM131.612 18.9C132.012 18.9 132.338 19.0467 132.592 19.34C132.858 19.6333 132.992 20 132.992 20.44C132.992 20.7467 132.898 21.04 132.712 21.32C132.525 21.5867 132.292 21.8 132.012 21.96C131.732 22.12 131.458 22.2 131.192 22.2C130.792 22.2 130.458 22.0533 130.192 21.76C129.938 21.4667 129.812 21.1 129.812 20.66C129.812 20.3533 129.905 20.0667 130.092 19.8C130.278 19.52 130.512 19.3 130.792 19.14C131.072 18.98 131.345 18.9 131.612 18.9ZM138.389 18.9C138.789 18.9 139.116 19.0467 139.369 19.34C139.636 19.6333 139.769 20 139.769 20.44C139.769 20.7467 139.676 21.04 139.489 21.32C139.302 21.5867 139.069 21.8 138.789 21.96C138.509 22.12 138.236 22.2 137.969 22.2C137.569 22.2 137.236 22.0533 136.969 21.76C136.716 21.4667 136.589 21.1 136.589 20.66C136.589 20.3533 136.682 20.0667 136.869 19.8C137.056 19.52 137.289 19.3 137.569 19.14C137.849 18.98 138.122 18.9 138.389 18.9ZM145.166 18.9C145.566 18.9 145.893 19.0467 146.146 19.34C146.413 19.6333 146.546 20 146.546 20.44C146.546 20.7467 146.453 21.04 146.266 21.32C146.08 21.5867 145.846 21.8 145.566 21.96C145.286 22.12 145.013 22.2 144.746 22.2C144.346 22.2 144.013 22.0533 143.746 21.76C143.493 21.4667 143.366 21.1 143.366 20.66C143.366 20.3533 143.46 20.0667 143.646 19.8C143.833 19.52 144.066 19.3 144.346 19.14C144.626 18.98 144.9 18.9 145.166 18.9Z" fill="#E76035"/>
<path d="M58.488 42.04L58.608 38.92C57.552 38.872 56.728 38.624 56.136 38.176C55.56 37.712 55.272 37.176 55.272 36.568C55.272 35.96 55.56 35.432 56.136 34.984C56.728 34.536 57.552 34.232 58.608 34.072C58.464 31.624 58.392 30.232 58.392 29.896C58.392 28.392 59.848 27.64 62.76 27.64C64.808 27.64 66.392 28.064 67.512 28.912C68.648 29.744 69.216 30.784 69.216 32.032C69.216 33.28 68.592 34.44 67.344 35.512C69.472 36.68 70.536 38.232 70.536 40.168C70.536 41.432 70.144 42.552 69.36 43.528C68.576 44.488 67.56 45.2 66.312 45.664C65.064 46.128 63.808 46.36 62.544 46.36C61.136 46.36 59.848 46.192 58.68 45.856C57.512 45.504 56.616 45.096 55.992 44.632C55.368 44.168 55.056 43.784 55.056 43.48C55.056 43.16 55.136 42.92 55.296 42.76C55.456 42.584 55.648 42.496 55.872 42.496C55.872 42.496 55.904 42.496 55.968 42.496C56.048 42.496 56.264 42.608 56.616 42.832C56.984 43.04 57.392 43.288 57.84 43.576C58.304 43.864 58.904 44.12 59.64 44.344C60.392 44.568 61.136 44.68 61.872 44.68C61.92 44.68 61.968 44.68 62.016 44.68C63.92 44.68 65.496 44.264 66.744 43.432C67.992 42.6 68.616 41.528 68.616 40.216C68.616 39.464 68.392 38.768 67.944 38.128C67.496 37.488 66.888 36.976 66.12 36.592C64.472 37.808 62.544 38.56 60.336 38.848L60.432 41.92C60.432 41.984 60.432 42.04 60.432 42.088C60.432 42.504 60.288 42.8 60 42.976C59.824 43.088 59.648 43.144 59.472 43.144L58.944 42.976C58.64 42.784 58.488 42.472 58.488 42.04ZM60.288 29.872C60.288 30.432 60.304 31.784 60.336 33.928C62.272 33.928 64.104 34.232 65.832 34.84C66.904 34.024 67.44 33.128 67.44 32.152C67.44 31.176 67.04 30.464 66.24 30.016C65.44 29.552 64.44 29.32 63.24 29.32C62.056 29.32 61.072 29.504 60.288 29.872ZM60.288 35.56V37.216C60.992 37.184 61.768 37.048 62.616 36.808C63.48 36.552 64.152 36.264 64.632 35.944C63.752 35.656 62.528 35.512 60.96 35.512C60.672 35.512 60.448 35.528 60.288 35.56ZM58.632 37.312V35.68C57.496 35.808 56.928 36.072 56.928 36.472C56.928 37 57.496 37.28 58.632 37.312ZM74.6205 40.024C74.6205 41.352 74.9885 42.48 75.7245 43.408C76.4605 44.336 77.3805 44.8 78.4845 44.8C79.6045 44.8 80.5485 44.336 81.3165 43.408C82.1005 42.464 82.4925 41.328 82.4925 40C82.4925 38.672 82.1165 37.544 81.3645 36.616C80.6285 35.672 79.7085 35.2 78.6045 35.2C77.5165 35.2 76.5725 35.672 75.7725 36.616C75.0045 37.56 74.6205 38.696 74.6205 40.024ZM74.5005 44.536C73.4445 43.304 72.9165 41.8 72.9165 40.024C72.9165 38.248 73.4525 36.744 74.5245 35.512C75.5965 34.264 76.9485 33.64 78.5805 33.64C80.2125 33.64 81.5565 34.256 82.6125 35.488C83.6685 36.704 84.1965 38.208 84.1965 40C84.1965 41.776 83.6525 43.28 82.5645 44.512C81.4925 45.744 80.1405 46.36 78.5085 46.36C76.8925 46.36 75.5565 45.752 74.5005 44.536ZM88.0971 40.024C88.0971 41.352 88.4651 42.48 89.2011 43.408C89.9371 44.336 90.8571 44.8 91.9611 44.8C93.0811 44.8 94.0251 44.336 94.7931 43.408C95.5771 42.464 95.9691 41.328 95.9691 40C95.9691 38.672 95.5931 37.544 94.8411 36.616C94.1051 35.672 93.1851 35.2 92.0811 35.2C90.9931 35.2 90.0491 35.672 89.2491 36.616C88.4811 37.56 88.0971 38.696 88.0971 40.024ZM87.9771 44.536C86.9211 43.304 86.3931 41.8 86.3931 40.024C86.3931 38.248 86.9291 36.744 88.0011 35.512C89.0731 34.264 90.4251 33.64 92.0571 33.64C93.6891 33.64 95.0331 34.256 96.0891 35.488C97.1451 36.704 97.6731 38.208 97.6731 40C97.6731 41.776 97.1291 43.28 96.0411 44.512C94.9691 45.744 93.6171 46.36 91.9851 46.36C90.3691 46.36 89.0331 45.752 87.9771 44.536ZM102.294 39.808L102.366 45.016C102.366 45.832 102.062 46.24 101.454 46.24C100.718 46.24 100.35 45.696 100.35 44.608C100.35 43.504 100.51 41.904 100.83 39.808C100.83 38.72 100.758 36.672 100.614 33.664C100.47 30.64 100.398 29.008 100.398 28.768C100.398 28.528 100.478 28.296 100.638 28.072C100.814 27.848 100.99 27.736 101.166 27.736C101.358 27.736 101.534 27.776 101.694 27.856C102.078 28.032 102.27 28.344 102.27 28.792C102.27 28.856 102.27 28.912 102.27 28.96V36.808C103.438 34.776 104.878 33.76 106.59 33.76C107.502 33.76 108.238 34.032 108.798 34.576C109.374 35.104 109.662 35.768 109.662 36.568C109.662 37.88 108.982 39 107.622 39.928L106.446 40.696L108.222 43.432C108.43 43.768 108.662 44.024 108.918 44.2C109.19 44.376 109.414 44.48 109.59 44.512C109.782 44.528 109.934 44.552 110.046 44.584C110.158 44.616 110.206 44.68 110.19 44.776C110.19 45.16 110.07 45.504 109.83 45.808C109.59 46.096 109.302 46.24 108.966 46.24C108.902 46.24 108.774 46.24 108.582 46.24C108.182 46.24 107.686 45.752 107.094 44.776C107.078 44.728 107.054 44.688 107.022 44.656C107.006 44.624 106.718 44.16 106.158 43.264C105.598 42.352 105.158 41.672 104.838 41.224C104.422 41.224 104.078 41.112 103.806 40.888C103.534 40.664 103.398 40.344 103.398 39.928C103.398 39.512 103.63 39.208 104.094 39.016C104.222 38.968 104.35 38.944 104.478 38.944C104.846 38.944 105.238 39.144 105.654 39.544C106.262 39.272 106.798 38.856 107.262 38.296C107.742 37.736 107.982 37.232 107.982 36.784C107.982 35.824 107.486 35.344 106.494 35.344C105.598 35.344 104.75 35.792 103.95 36.688C103.15 37.584 102.598 38.624 102.294 39.808ZM120.984 42.544C120.984 43.616 120.536 44.504 119.64 45.208C118.76 45.896 117.704 46.24 116.472 46.24C115.24 46.24 114.16 45.96 113.232 45.4C112.32 44.824 111.864 44.256 111.864 43.696C111.864 43.328 112.016 43.08 112.32 42.952C112.624 42.824 112.856 42.84 113.016 43C113.048 43.016 113.368 43.328 113.976 43.936C114.152 44.096 114.48 44.264 114.96 44.44C115.44 44.6 115.864 44.68 116.232 44.68C117.128 44.68 117.856 44.496 118.416 44.128C118.976 43.76 119.256 43.24 119.256 42.568C119.256 41.72 118.456 41.024 116.856 40.48C115.08 39.872 113.944 39.352 113.448 38.92C113.208 38.712 112.984 38.44 112.776 38.104C112.584 37.752 112.488 37.384 112.488 37C112.488 36.136 112.88 35.384 113.664 34.744C114.464 34.088 115.416 33.76 116.52 33.76C117.624 33.76 118.52 33.952 119.208 34.336C119.896 34.704 120.24 35.12 120.24 35.584C120.24 36.112 119.96 36.376 119.4 36.376C119.176 36.376 118.936 36.288 118.68 36.112C117.912 35.584 117.168 35.32 116.448 35.32C115.744 35.32 115.208 35.48 114.84 35.8C114.408 36.104 114.192 36.464 114.192 36.88C114.192 37.28 114.4 37.608 114.816 37.864C115.232 38.12 115.912 38.44 116.856 38.824C117.8 39.192 118.376 39.424 118.584 39.52C119.288 39.824 119.864 40.24 120.312 40.768C120.76 41.296 120.984 41.888 120.984 42.544ZM130.449 28.6C131.105 28.6 131.433 28.984 131.433 29.752C131.433 30.104 131.313 30.44 131.073 30.76C130.849 31.064 130.577 31.216 130.257 31.216C129.585 31.216 129.249 30.808 129.249 29.992C129.249 29.608 129.361 29.28 129.585 29.008C129.825 28.736 130.113 28.6 130.449 28.6ZM131.241 34.96L131.121 40L131.241 45.04C131.241 45.84 130.937 46.24 130.329 46.24C129.721 46.24 129.417 45.84 129.417 45.04L129.537 40L129.417 34.96C129.417 34.16 129.721 33.76 130.329 33.76C130.937 33.76 131.241 34.16 131.241 34.96ZM144.912 38.44L144.792 42.208V43.24C144.824 43.896 144.984 44.288 145.272 44.416C145.384 44.448 145.512 44.48 145.656 44.512C145.8 44.528 145.896 44.552 145.944 44.584C146.008 44.616 146.04 44.68 146.04 44.776C146.04 45.192 145.904 45.544 145.632 45.832C145.376 46.104 145.072 46.24 144.72 46.24C144.128 46.24 143.712 46.008 143.472 45.544C143.232 45.08 143.112 44.368 143.112 43.408L143.208 38.992C143.208 37.888 142.968 37.008 142.488 36.352C142.024 35.68 141.384 35.344 140.568 35.344C139.752 35.344 138.96 35.8 138.192 36.712C137.44 37.608 136.904 38.64 136.584 39.808L136.656 45.016C136.656 45.832 136.352 46.24 135.744 46.24C135.008 46.24 134.64 45.696 134.64 44.608C134.64 43.504 134.8 41.904 135.12 39.808C135.12 39.136 135.048 38.192 134.904 36.976C134.776 35.76 134.712 35.024 134.712 34.768C134.712 34.512 134.8 34.28 134.976 34.072C135.152 33.864 135.376 33.76 135.648 33.76C135.92 33.76 136.144 33.864 136.32 34.072C136.496 34.28 136.584 34.504 136.584 34.744C136.584 34.984 136.576 35.344 136.56 35.824C136.56 36.304 136.56 36.632 136.56 36.808C137.728 34.776 139.168 33.76 140.88 33.76C142.16 33.76 143.152 34.224 143.856 35.152C144.56 36.064 144.912 37.16 144.912 38.44ZM148.181 33.952L149.381 34V31.96C149.381 30.552 149.653 29.504 150.197 28.816C150.757 28.112 151.429 27.76 152.213 27.76C152.997 27.76 153.645 27.904 154.157 28.192C154.685 28.48 154.949 28.8 154.949 29.152C154.949 29.68 154.725 29.944 154.277 29.944C154.165 29.944 153.893 29.848 153.461 29.656C153.045 29.464 152.717 29.368 152.477 29.368C151.485 29.368 150.989 30.304 150.989 32.176V34L153.317 33.952C153.573 33.952 153.789 34.024 153.965 34.168C154.141 34.296 154.229 34.48 154.229 34.72C154.229 35.2 153.925 35.44 153.317 35.44L150.989 35.392L151.061 44.008C151.061 45.592 150.765 46.808 150.173 47.656C149.597 48.52 148.997 48.952 148.373 48.952C147.765 48.952 147.461 48.8 147.461 48.496C147.461 48.368 147.517 48.24 147.629 48.112C147.757 48 147.925 47.848 148.133 47.656C148.341 47.464 148.517 47.264 148.661 47.056C149.125 46.4 149.381 45.464 149.429 44.248C149.477 43.032 149.501 41.608 149.501 39.976C149.501 38.344 149.469 36.816 149.405 35.392L148.181 35.44C147.573 35.44 147.269 35.2 147.269 34.72C147.269 34.48 147.357 34.296 147.533 34.168C147.709 34.024 147.925 33.952 148.181 33.952ZM157.167 40.024C157.167 41.352 157.535 42.48 158.271 43.408C159.007 44.336 159.927 44.8 161.031 44.8C162.151 44.8 163.095 44.336 163.863 43.408C164.647 42.464 165.039 41.328 165.039 40C165.039 38.672 164.663 37.544 163.911 36.616C163.175 35.672 162.255 35.2 161.151 35.2C160.063 35.2 159.119 35.672 158.319 36.616C157.551 37.56 157.167 38.696 157.167 40.024ZM157.047 44.536C155.991 43.304 155.463 41.8 155.463 40.024C155.463 38.248 155.999 36.744 157.071 35.512C158.143 34.264 159.495 33.64 161.127 33.64C162.759 33.64 164.103 34.256 165.159 35.488C166.215 36.704 166.743 38.208 166.743 40C166.743 41.776 166.199 43.28 165.111 44.512C164.039 45.744 162.687 46.36 161.055 46.36C159.439 46.36 158.103 45.752 157.047 44.536Z" fill="#458260"/>
<circle cx="29" cy="44" r="1" fill="white"/>
<circle cx="21" cy="44" r="1" fill="white"/>
<circle cx="25" cy="45" r="1" fill="white"/>
</svg>
